<?xml version="1.0" encoding="UTF-8"?>
<svg xmlns="http://www.w3.org/2000/svg" xmlns:xlink="http://www.w3.org/1999/xlink" width="4000" height="4000" viewBox="0 0 4000 4000">
<defs>
<clipPath id="clip-0">
<path clip-rule="nonzero" d="M 704 1050 L 3731 1050 L 3731 3106 L 704 3106 Z M 704 1050 "/>
</clipPath>
<clipPath id="clip-1">
<path clip-rule="nonzero" d="M 1340.941406 1937.878906 C 1238.679688 1937.878906 1155.78125 1852.679688 1155.78125 1747.578125 C 1155.78125 1642.46875 1238.679688 1557.269531 1340.941406 1557.269531 C 1443.199219 1557.269531 1526.089844 1642.46875 1526.089844 1747.578125 C 1526.089844 1852.679688 1443.199219 1937.878906 1340.941406 1937.878906 Z M 3715.078125 1630.039062 C 3715.078125 1630.039062 3713.21875 1184.828125 3294.941406 1204.578125 C 3294.941406 1204.578125 2864.070312 1347.039062 2795.03125 1310.949219 C 2795.03125 1310.949219 2640.699219 1159.199219 2497.210938 1209.898438 C 2497.210938 1209.898438 2193.96875 1291.199219 2146.210938 1385.398438 C 2146.210938 1385.398438 1978.589844 1432.128906 1917.53125 1390.71875 C 1917.53125 1390.71875 1788.121094 1255.058594 1715.429688 1146.078125 C 1715.429688 1146.078125 1682.300781 1056.769531 1492.070312 1050.359375 C 1492.070312 1050.359375 1255.308594 1050.359375 1231.46875 1114.171875 C 1231.46875 1114.171875 1143.628906 1251.308594 976.199219 1263.078125 C 976.199219 1263.078125 815.503906 1296.949219 747.519531 1380.078125 C 747.519531 1380.078125 651.789062 1560.898438 747.519531 1762.988281 C 747.519531 1762.988281 853.886719 1986.359375 811.335938 2167.179688 C 811.335938 2167.179688 720.835938 2336.300781 827.289062 2459.679688 C 827.289062 2459.679688 938.976562 2571.359375 1098.519531 2544.769531 C 1098.519531 2544.769531 1172.878906 2508.25 1141.058594 2337.359375 C 1141.058594 2337.359375 1275.171875 2293.75 1274.019531 2470.320312 C 1274.019531 2470.320312 1106.5 2636.21875 1274.019531 2778.769531 C 1274.019531 2778.769531 1538.710938 2900.488281 1492.070312 2778.769531 C 1492.070312 2778.769531 1420.269531 2689.410156 1454.839844 2507.550781 C 1454.839844 2507.550781 1502.699219 2459.679688 1561.210938 2539.460938 C 1561.210938 2539.460938 1640.980469 2631.390625 1593.109375 2417.140625 C 1593.109375 2417.140625 1634.78125 2336.300781 1699.480469 2480.949219 C 1699.480469 2480.949219 1621.21875 3028 1667.570312 3065.949219 C 1667.570312 3065.949219 1832.820312 3195.070312 1853.710938 2986.179688 C 1885.621094 2667.089844 1885.621094 2667.089844 1885.621094 2667.089844 C 1885.621094 2667.089844 1960.070312 2363.949219 1816.480469 2183.128906 C 1816.480469 2183.128906 1867 1901.089844 1904.910156 1933.179688 C 1904.910156 1933.179688 1978.679688 2018.980469 2194.070312 2095.199219 C 2194.070312 2095.199219 2194.070312 2095.199219 2401.480469 2151.230469 C 2401.480469 2151.230469 2397.839844 2293.75 2566.339844 2326.730469 C 2566.339844 2326.730469 2646.019531 2400.929688 2826.929688 2369.269531 C 2826.929688 2369.269531 2779.070312 2667.089844 3002.429688 2661.769531 C 3002.429688 2661.769531 3236.429688 2709.640625 3108.800781 2156.539062 C 3108.800781 2156.539062 3053.761719 1901.089844 3481.078125 2066.128906 C 3481.078125 2066.128906 3805.390625 2188.210938 3715.078125 1630.039062 Z M 3715.078125 1630.039062 "/>
</clipPath>
<clipPath id="clip-2">
<path clip-rule="nonzero" d="M 1340.941406 1937.878906 C 1238.679688 1937.878906 1155.78125 1852.679688 1155.78125 1747.578125 C 1155.78125 1642.46875 1238.679688 1557.269531 1340.941406 1557.269531 C 1443.199219 1557.269531 1526.089844 1642.46875 1526.089844 1747.578125 C 1526.089844 1852.679688 1443.199219 1937.878906 1340.941406 1937.878906 Z M 3715.078125 1630.039062 C 3715.078125 1630.039062 3713.21875 1184.828125 3294.941406 1204.578125 C 3294.941406 1204.578125 2864.070312 1347.039062 2795.03125 1310.949219 C 2795.03125 1310.949219 2640.699219 1159.199219 2497.210938 1209.898438 C 2497.210938 1209.898438 2193.96875 1291.199219 2146.210938 1385.398438 C 2146.210938 1385.398438 1978.589844 1432.128906 1917.53125 1390.71875 C 1917.53125 1390.71875 1788.121094 1255.058594 1715.429688 1146.078125 C 1715.429688 1146.078125 1682.300781 1056.769531 1492.070312 1050.359375 C 1492.070312 1050.359375 1255.308594 1050.359375 1231.46875 1114.171875 C 1231.46875 1114.171875 1143.628906 1251.308594 976.199219 1263.078125 C 976.199219 1263.078125 815.503906 1296.949219 747.519531 1380.078125 C 747.519531 1380.078125 651.789062 1560.898438 747.519531 1762.988281 C 747.519531 1762.988281 853.886719 1986.359375 811.335938 2167.179688 C 811.335938 2167.179688 720.835938 2336.300781 827.289062 2459.679688 C 827.289062 2459.679688 938.976562 2571.359375 1098.519531 2544.769531 C 1098.519531 2544.769531 1172.878906 2508.25 1141.058594 2337.359375 C 1141.058594 2337.359375 1275.171875 2293.75 1274.019531 2470.320312 C 1274.019531 2470.320312 1106.5 2636.21875 1274.019531 2778.769531 C 1274.019531 2778.769531 1538.710938 2900.488281 1492.070312 2778.769531 C 1492.070312 2778.769531 1420.269531 2689.410156 1454.839844 2507.550781 C 1454.839844 2507.550781 1502.699219 2459.679688 1561.210938 2539.460938 C 1561.210938 2539.460938 1640.980469 2631.390625 1593.109375 2417.140625 C 1593.109375 2417.140625 1634.78125 2336.300781 1699.480469 2480.949219 C 1699.480469 2480.949219 1621.21875 3028 1667.570312 3065.949219 C 1667.570312 3065.949219 1832.820312 3195.070312 1853.710938 2986.179688 C 1885.621094 2667.089844 1885.621094 2667.089844 1885.621094 2667.089844 C 1885.621094 2667.089844 1960.070312 2363.949219 1816.480469 2183.128906 C 1816.480469 2183.128906 1867 1901.089844 1904.910156 1933.179688 C 1904.910156 1933.179688 1978.679688 2018.980469 2194.070312 2095.199219 C 2194.070312 2095.199219 2194.070312 2095.199219 2401.480469 2151.230469 C 2401.480469 2151.230469 2397.839844 2293.75 2566.339844 2326.730469 C 2566.339844 2326.730469 2646.019531 2400.929688 2826.929688 2369.269531 C 2826.929688 2369.269531 2779.070312 2667.089844 3002.429688 2661.769531 C 3002.429688 2661.769531 3236.429688 2709.640625 3108.800781 2156.539062 C 3108.800781 2156.539062 3053.761719 1901.089844 3481.078125 2066.128906 C 3481.078125 2066.128906 3805.390625 2188.210938 3715.078125 1630.039062 "/>
</clipPath>
<linearGradient id="linear-pattern-0" gradientUnits="userSpaceOnUse" x1="0.450933" y1="0" x2="1.711993" y2="0" gradientTransform="matrix(-13.332, 1720, -1720, -13.332, 2229.03, 262.49)">
<stop offset="0" stop-color="rgb(23.497009%, 15.570068%, 3.875732%)" stop-opacity="1"/>
<stop offset="0.03125" stop-color="rgb(23.666382%, 15.615845%, 3.735352%)" stop-opacity="1"/>
<stop offset="0.0625" stop-color="rgb(24.006653%, 15.708923%, 3.457642%)" stop-opacity="1"/>
<stop offset="0.09375" stop-color="rgb(24.346924%, 15.802002%, 3.179932%)" stop-opacity="1"/>
<stop offset="0.125" stop-color="rgb(24.687195%, 15.893555%, 2.900696%)" stop-opacity="1"/>
<stop offset="0.15625" stop-color="rgb(25.027466%, 15.986633%, 2.622986%)" stop-opacity="1"/>
<stop offset="0.1875" stop-color="rgb(25.366211%, 16.079712%, 2.345276%)" stop-opacity="1"/>
<stop offset="0.21875" stop-color="rgb(25.706482%, 16.172791%, 2.06604%)" stop-opacity="1"/>
<stop offset="0.25" stop-color="rgb(26.046753%, 16.264343%, 1.78833%)" stop-opacity="1"/>
<stop offset="0.28125" stop-color="rgb(26.387024%, 16.357422%, 1.51062%)" stop-opacity="1"/>
<stop offset="0.3125" stop-color="rgb(26.727295%, 16.4505%, 1.231384%)" stop-opacity="1"/>
<stop offset="0.34375" stop-color="rgb(27.06604%, 16.543579%, 0.953674%)" stop-opacity="1"/>
<stop offset="0.375" stop-color="rgb(27.406311%, 16.635132%, 0.675964%)" stop-opacity="1"/>
<stop offset="0.40625" stop-color="rgb(27.746582%, 16.72821%, 0.398254%)" stop-opacity="1"/>
<stop offset="0.4375" stop-color="rgb(28.076172%, 16.818237%, 0.1297%)" stop-opacity="1"/>
<stop offset="0.5" stop-color="rgb(28.234863%, 16.862488%, 0%)" stop-opacity="1"/>
<stop offset="1" stop-color="rgb(28.234863%, 16.862488%, 0%)" stop-opacity="1"/>
</linearGradient>
</defs>
<rect x="-400" y="-400" width="4800" height="4800" fill="rgb(100%, 100%, 100%)" fill-opacity="1"/>
<path fill-rule="nonzero" fill="rgb(49.414062%, 81.25%, 87.109375%)" fill-opacity="1" d="M 1816.730469 1676.828125 C 1816.730469 2037.269531 1496.570312 2329.449219 1101.628906 2329.449219 C 706.6875 2329.449219 386.535156 2037.269531 386.535156 1676.828125 C 386.535156 1316.410156 706.6875 1024.230469 1101.628906 1024.230469 C 1496.570312 1024.230469 1816.730469 1316.410156 1816.730469 1676.828125 "/>
<path fill-rule="nonzero" fill="rgb(49.414062%, 81.25%, 87.109375%)" fill-opacity="1" d="M 787.160156 2027.410156 C 1095.578125 2083.308594 554.429688 1496.621094 808.710938 1436.691406 C 1062.988281 1376.75 1137.769531 957.261719 1508.238281 1196.96875 C 1878.699219 1436.691406 2587.421875 1231.230469 2480.441406 1693.53125 C 2373.46875 2155.820312 2306.609375 2832.148438 1825.210938 2643.808594 C 1343.800781 2455.460938 763.15625 2948.179688 602.164062 2676.140625 C 441.179688 2404.109375 598.257812 1993.171875 787.160156 2027.410156 "/>
<path fill-rule="nonzero" fill="rgb(68.164062%, 51.756287%, 18.041992%)" fill-opacity="1" d="M 1340.929688 1937.878906 C 1233.960938 1937.878906 1147.230469 1850.378906 1147.230469 1742.429688 C 1147.230469 1634.480469 1233.960938 1546.96875 1340.929688 1546.96875 C 1447.921875 1546.96875 1534.640625 1634.480469 1534.640625 1742.429688 C 1534.640625 1850.378906 1447.921875 1937.878906 1340.929688 1937.878906 Z M 1340.929688 976.601562 C 917.984375 976.601562 575.113281 1319.46875 575.113281 1742.429688 C 575.113281 2165.378906 917.984375 2508.25 1340.929688 2508.25 C 1763.890625 2508.25 2106.761719 2165.378906 2106.761719 1742.429688 C 2106.761719 1319.46875 1763.890625 976.601562 1340.929688 976.601562 "/>
<path fill-rule="nonzero" fill="rgb(78.514099%, 57.226562%, 19.213867%)" fill-opacity="1" d="M 1340.929688 1941.859375 C 1235.199219 1941.859375 1149.480469 1856.140625 1149.480469 1750.398438 C 1149.480469 1644.671875 1235.199219 1558.949219 1340.929688 1558.949219 C 1446.679688 1558.949219 1532.390625 1644.671875 1532.390625 1750.398438 C 1532.390625 1856.140625 1446.679688 1941.859375 1340.929688 1941.859375 Z M 1364.871094 1000.539062 C 955.132812 1000.539062 622.980469 1332.691406 622.980469 1742.429688 C 622.980469 2152.171875 955.132812 2484.320312 1364.871094 2484.320312 C 1774.609375 2484.320312 2106.761719 2152.171875 2106.761719 1742.429688 C 2106.761719 1332.691406 1774.609375 1000.539062 1364.871094 1000.539062 "/>
<g clip-path="url(#clip-0)">
<g clip-path="url(#clip-1)">
<g clip-path="url(#clip-2)">
<path fill-rule="nonzero" fill="url(#linear-pattern-0)" d="M 3822.011719 1050.488281 L 651.976562 1025.917969 L 635.164062 3194.941406 L 3805.199219 3219.511719 Z M 3822.011719 1050.488281 "/>
</g>
</g>
</g>
<path fill-rule="nonzero" fill="rgb(74.414062%, 28.637695%, 60.351562%)" fill-opacity="1" d="M 1514.230469 1276.199219 L 1453.960938 1276.199219 L 1453.960938 1159.199219 L 1514.230469 1159.199219 L 1514.230469 1276.199219 "/>
<path fill-rule="nonzero" fill="rgb(74.414062%, 28.637695%, 60.351562%)" fill-opacity="1" d="M 1634.78125 1460.558594 L 1595.769531 1460.558594 L 1595.769531 1311.648438 L 1634.78125 1311.648438 L 1634.78125 1460.558594 "/>
<path fill-rule="nonzero" fill="rgb(74.414062%, 28.637695%, 60.351562%)" fill-opacity="1" d="M 1832.429688 1830.179688 L 1788.121094 1830.179688 L 1788.121094 1695.449219 L 1832.429688 1695.449219 L 1832.429688 1830.179688 "/>
<path fill-rule="nonzero" fill="rgb(74.414062%, 28.637695%, 60.351562%)" fill-opacity="1" d="M 1797.859375 1584.648438 L 1666.691406 1584.648438 L 1666.691406 1531.46875 L 1797.859375 1531.46875 L 1797.859375 1584.648438 "/>
<path fill-rule="nonzero" fill="rgb(74.414062%, 28.637695%, 60.351562%)" fill-opacity="1" d="M 1939.691406 1808.019531 L 1893.589844 1808.019531 L 1893.589844 1676.839844 L 1939.691406 1676.839844 L 1939.691406 1808.019531 "/>
<path fill-rule="nonzero" fill="rgb(74.414062%, 28.637695%, 60.351562%)" fill-opacity="1" d="M 1666.691406 1903.75 L 1634.78125 1903.75 L 1634.78125 1772.558594 L 1666.691406 1772.558594 L 1666.691406 1903.75 "/>
<path fill-rule="nonzero" fill="rgb(74.414062%, 28.637695%, 60.351562%)" fill-opacity="1" d="M 1666.691406 2222.828125 L 1615.269531 2222.828125 L 1615.269531 2105.839844 L 1666.691406 2105.839844 L 1666.691406 2222.828125 "/>
<path fill-rule="nonzero" fill="rgb(74.414062%, 28.637695%, 60.351562%)" fill-opacity="1" d="M 1535.5 2018.980469 L 1383.039062 2018.980469 L 1383.039062 1976.429688 L 1535.5 1976.429688 L 1535.5 2018.980469 "/>
<path fill-rule="nonzero" fill="rgb(74.414062%, 28.637695%, 60.351562%)" fill-opacity="1" d="M 1441.539062 2222.828125 L 1399 2222.828125 L 1399 2116.480469 L 1441.539062 2116.480469 L 1441.539062 2222.828125 "/>
<path fill-rule="nonzero" fill="rgb(74.414062%, 28.637695%, 60.351562%)" fill-opacity="1" d="M 1535.5 2336.300781 L 1347.589844 2336.300781 L 1347.589844 2293.75 L 1535.5 2293.75 L 1535.5 2336.300781 "/>
<path fill-rule="nonzero" fill="rgb(74.414062%, 28.637695%, 60.351562%)" fill-opacity="1" d="M 1021.398438 2222.828125 L 968.730469 2222.828125 L 968.730469 2105.839844 L 1021.398438 2105.839844 L 1021.398438 2222.828125 "/>
<path fill-rule="nonzero" fill="rgb(74.414062%, 28.637695%, 60.351562%)" fill-opacity="1" d="M 1266.039062 2072.148438 L 1124.21875 2072.148438 L 1124.21875 2018.980469 L 1266.039062 2018.980469 L 1266.039062 2072.148438 "/>
<path fill-rule="nonzero" fill="rgb(74.414062%, 28.637695%, 60.351562%)" fill-opacity="1" d="M 1035.589844 1964.019531 L 995.0625 1964.019531 L 995.0625 1838.160156 L 1035.589844 1838.160156 L 1035.589844 1964.019531 "/>
<path fill-rule="nonzero" fill="rgb(74.414062%, 28.637695%, 60.351562%)" fill-opacity="1" d="M 890.226562 1742.429688 L 851.222656 1742.429688 L 851.222656 1648.46875 L 890.226562 1648.46875 L 890.226562 1742.429688 "/>
<path fill-rule="nonzero" fill="rgb(74.414062%, 28.637695%, 60.351562%)" fill-opacity="1" d="M 1071.039062 1648.46875 L 954.042969 1648.46875 L 954.042969 1584.648438 L 1071.039062 1584.648438 L 1071.039062 1648.46875 "/>
<path fill-rule="nonzero" fill="rgb(74.414062%, 28.637695%, 60.351562%)" fill-opacity="1" d="M 929.222656 1499.558594 L 890.226562 1499.558594 L 890.226562 1386.109375 L 929.222656 1386.109375 L 929.222656 1499.558594 "/>
<path fill-rule="nonzero" fill="rgb(74.414062%, 28.637695%, 60.351562%)" fill-opacity="1" d="M 1124.21875 1460.558594 L 1088.769531 1460.558594 L 1088.769531 1323.179688 L 1124.21875 1323.179688 L 1124.21875 1460.558594 "/>
<path fill-rule="nonzero" fill="rgb(74.414062%, 28.637695%, 60.351562%)" fill-opacity="1" d="M 1212.859375 1276.199219 L 1324.539062 1276.199219 L 1324.539062 1323.179688 L 1212.859375 1323.179688 L 1212.859375 1276.199219 "/>
<path fill-rule="nonzero" fill="rgb(74.414062%, 28.637695%, 60.351562%)" fill-opacity="1" d="M 2301.398438 1654.871094 C 2296.699219 1663.800781 2292.511719 1671.691406 2288.828125 1678.539062 C 2285.140625 1685.398438 2282.628906 1690.851562 2281.269531 1694.910156 C 2279.910156 1698.960938 2279.640625 1702.808594 2280.429688 1706.46875 C 2281.691406 1712.320312 2285.828125 1716.878906 2292.851562 1720.140625 C 2299.871094 1723.410156 2309.050781 1723.808594 2320.378906 1721.359375 C 2330.851562 1719.089844 2341.628906 1714.820312 2352.699219 1708.53125 C 2363.78125 1702.25 2372.71875 1695.25 2379.53125 1687.519531 C 2386.339844 1679.800781 2389.089844 1672.890625 2387.769531 1666.800781 C 2386.640625 1661.558594 2382.710938 1657.878906 2376.011719 1655.761719 C 2369.300781 1653.640625 2359.570312 1652.589844 2346.820312 1652.609375 C 2334.070312 1652.621094 2318.929688 1653.378906 2301.398438 1654.871094 Z M 2315.679688 1627.109375 L 2308.71875 1640.089844 C 2319.78125 1638.71875 2329.75 1637.929688 2338.628906 1637.730469 C 2347.519531 1637.539062 2355.800781 1637.660156 2363.480469 1638.101562 C 2371.160156 1638.539062 2377.988281 1639.261719 2383.949219 1640.269531 C 2404.929688 1644.148438 2416.980469 1653.28125 2420.089844 1667.648438 C 2421.988281 1676.421875 2419.828125 1685.878906 2413.609375 1696.03125 C 2407.378906 1706.179688 2398.550781 1715.929688 2387.128906 1725.28125 C 2375.691406 1734.640625 2363.589844 1742.648438 2350.808594 1749.308594 C 2338.019531 1755.960938 2326.089844 1760.488281 2315.011719 1762.878906 C 2296.488281 1766.890625 2281.308594 1766.570312 2269.460938 1761.929688 C 2257.621094 1757.289062 2250.410156 1748.988281 2247.820312 1737.050781 C 2246.03125 1728.769531 2247.089844 1718.339844 2251 1705.761719 C 2254.910156 1693.179688 2261.699219 1677.109375 2271.378906 1657.539062 C 2261.28125 1659.21875 2253.890625 1659.25 2249.210938 1657.648438 C 2244.519531 1656.050781 2241.699219 1653 2240.71875 1648.488281 C 2240.109375 1645.691406 2240.449219 1643.378906 2241.710938 1641.578125 C 2242.980469 1639.78125 2244.878906 1638.25 2247.410156 1637 C 2249.949219 1635.75 2254.921875 1633.808594 2262.320312 1631.191406 C 2269.730469 1628.570312 2279.238281 1625.230469 2290.859375 1621.191406 C 2300.609375 1601.988281 2309.871094 1587.140625 2318.628906 1576.640625 C 2327.378906 1566.140625 2337.660156 1558.96875 2349.460938 1555.140625 C 2350.410156 1554.808594 2351.460938 1554.519531 2352.621094 1554.269531 C 2353.78125 1554.019531 2354.421875 1554.199219 2354.550781 1554.808594 C 2354.710938 1555.539062 2353.761719 1557.78125 2351.710938 1561.539062 C 2349.648438 1565.308594 2346.300781 1571.320312 2341.648438 1579.601562 C 2337 1587.878906 2331.5 1597.671875 2325.148438 1608.988281 C 2347.390625 1601 2365.359375 1593.441406 2379.070312 1586.328125 C 2392.769531 1579.21875 2402.738281 1572.121094 2408.988281 1565.03125 C 2415.230469 1557.941406 2417.628906 1551.050781 2416.179688 1544.351562 C 2414.421875 1536.179688 2409.179688 1531.128906 2400.46875 1529.191406 C 2391.761719 1527.25 2379.238281 1528.039062 2362.921875 1531.570312 C 2353.898438 1533.519531 2343.769531 1536.671875 2332.539062 1541.011719 C 2321.300781 1545.359375 2311.199219 1549.710938 2302.269531 1554.058594 C 2293.320312 1558.429688 2285.449219 1562.710938 2278.648438 1566.929688 C 2271.839844 1571.140625 2268.570312 1573.859375 2268.839844 1575.070312 C 2268.921875 1575.429688 2269.359375 1575.71875 2270.171875 1575.929688 C 2276.609375 1576.828125 2280 1578.011719 2280.308594 1579.480469 C 2280.730469 1581.421875 2272.410156 1587.148438 2255.328125 1596.640625 C 2238.261719 1606.140625 2226.550781 1611.570312 2220.210938 1612.941406 C 2215.710938 1613.921875 2212.960938 1612.148438 2211.988281 1607.640625 C 2210.828125 1602.289062 2213.640625 1591.570312 2220.441406 1575.5 C 2227.21875 1559.429688 2234.21875 1548.570312 2241.410156 1542.929688 C 2243.929688 1540.988281 2249.980469 1537.449219 2259.589844 1532.308594 C 2269.191406 1527.171875 2279.820312 1521.941406 2291.480469 1516.609375 C 2303.148438 1511.28125 2315.121094 1506.328125 2327.390625 1501.761719 C 2339.671875 1497.199219 2350.679688 1493.859375 2360.429688 1491.75 C 2383.449219 1486.769531 2401.640625 1487.128906 2414.988281 1492.859375 C 2428.339844 1498.578125 2436.371094 1507.648438 2439.050781 1520.070312 C 2440.878906 1528.480469 2439.980469 1537.160156 2436.359375 1546.101562 C 2432.75 1555.050781 2426.089844 1564.199219 2416.378906 1573.570312 C 2406.679688 1582.941406 2393.398438 1592.191406 2376.570312 1601.308594 C 2359.730469 1610.441406 2339.429688 1619.039062 2315.679688 1627.109375 "/>
<path fill-rule="nonzero" fill="rgb(74.414062%, 28.637695%, 60.351562%)" fill-opacity="1" d="M 2519.871094 1638.988281 C 2507.269531 1666.199219 2497.429688 1685.738281 2490.371094 1697.601562 C 2483.300781 1709.460938 2476.839844 1716.019531 2471 1717.28125 C 2466.371094 1718.28125 2461.691406 1717.28125 2456.960938 1714.289062 C 2452.230469 1711.300781 2448.089844 1706.769531 2444.550781 1700.710938 C 2441.011719 1694.660156 2438.441406 1687.921875 2436.828125 1680.480469 C 2435.78125 1675.609375 2435.289062 1671.128906 2435.359375 1667.03125 C 2435.429688 1662.929688 2436.230469 1658.261719 2437.78125 1653.019531 C 2439.320312 1647.78125 2441.601562 1641.960938 2444.621094 1635.558594 C 2447.628906 1629.179688 2451.441406 1621.851562 2456.03125 1613.589844 C 2458.761719 1608.53125 2461.058594 1604.269531 2462.929688 1600.808594 C 2464.789062 1597.339844 2466.800781 1594.839844 2468.949219 1593.289062 C 2471.101562 1591.738281 2474.859375 1590.378906 2480.21875 1589.21875 C 2484.121094 1588.378906 2487.949219 1588.101562 2491.699219 1588.371094 C 2495.460938 1588.640625 2497.460938 1589.320312 2497.699219 1590.421875 C 2498.171875 1592.609375 2497.230469 1596.960938 2494.871094 1603.460938 C 2492.519531 1609.96875 2488.230469 1618.191406 2482.039062 1628.140625 C 2475.839844 1638.089844 2468.351562 1648.160156 2459.589844 1658.339844 C 2458.828125 1666.039062 2458.859375 1671.769531 2459.679688 1675.539062 C 2460.808594 1680.78125 2463.378906 1682.960938 2467.410156 1682.089844 C 2468.871094 1681.78125 2471.03125 1680.011719 2473.910156 1676.769531 C 2476.769531 1673.539062 2481.488281 1667.480469 2488.050781 1658.601562 C 2494.609375 1649.710938 2500.519531 1641.839844 2505.800781 1634.960938 C 2509.648438 1629.789062 2513.828125 1622.410156 2518.320312 1612.828125 C 2522.820312 1603.25 2526.570312 1595.96875 2529.570312 1590.980469 C 2536.53125 1579.53125 2541.339844 1572.011719 2544.019531 1568.441406 C 2546.691406 1564.871094 2549.539062 1562.75 2552.589844 1562.089844 C 2555.511719 1561.460938 2557.691406 1561.941406 2559.121094 1563.550781 C 2560.550781 1565.148438 2561.878906 1568.761719 2563.089844 1574.359375 C 2563.640625 1576.910156 2563.839844 1579.039062 2563.699219 1580.730469 C 2563.550781 1582.421875 2562.988281 1584.679688 2562.011719 1587.511719 C 2561.019531 1590.328125 2558.941406 1595.601562 2555.761719 1603.300781 C 2552.578125 1611 2548.808594 1620.109375 2544.460938 1630.609375 C 2542.101562 1636.21875 2540.269531 1642.199219 2538.960938 1648.539062 C 2537.648438 1654.878906 2537.320312 1659.519531 2537.949219 1662.429688 C 2539.320312 1668.769531 2542.5 1671.398438 2547.5 1670.320312 C 2551.628906 1669.421875 2556.078125 1666.679688 2560.828125 1662.078125 C 2565.570312 1657.480469 2572.648438 1649.511719 2582.050781 1638.171875 L 2584.699219 1650.410156 C 2573.289062 1666.648438 2564.820312 1678.5 2559.289062 1685.941406 C 2553.761719 1693.378906 2548.828125 1699.171875 2544.488281 1703.300781 C 2540.148438 1707.429688 2535.730469 1709.96875 2531.230469 1710.949219 C 2520.988281 1713.160156 2514.558594 1708.179688 2511.921875 1695.988281 C 2510.921875 1691.371094 2511.089844 1684.789062 2512.441406 1676.28125 C 2513.789062 1667.761719 2516.261719 1655.328125 2519.871094 1638.988281 "/>
<path fill-rule="nonzero" fill="rgb(74.414062%, 28.637695%, 60.351562%)" fill-opacity="1" d="M 2642.980469 1601.460938 L 2633.921875 1575.488281 C 2628.210938 1585.648438 2615.609375 1605.53125 2596.128906 1635.128906 C 2603.78125 1635.128906 2609.230469 1636.179688 2612.488281 1638.28125 C 2615.75 1640.378906 2620.648438 1644.738281 2627.179688 1651.359375 C 2634.730469 1646.160156 2640.089844 1640.121094 2643.261719 1633.25 C 2646.429688 1626.378906 2646.898438 1617.820312 2644.691406 1607.589844 C 2644.429688 1606.371094 2644.160156 1605.289062 2643.890625 1604.320312 C 2643.609375 1603.359375 2643.308594 1602.410156 2642.980469 1601.460938 Z M 2580.859375 1644.160156 L 2579.910156 1639.78125 C 2604.179688 1599.839844 2620.789062 1571.960938 2629.730469 1556.121094 C 2629.171875 1540.550781 2634 1531.660156 2644.238281 1529.449219 C 2646.800781 1528.890625 2649.699219 1529.039062 2652.941406 1529.859375 L 2654.78125 1533.101562 C 2654.609375 1534.660156 2654.820312 1536.789062 2655.398438 1539.46875 C 2655.898438 1541.789062 2657.710938 1545.890625 2660.828125 1551.78125 C 2663.949219 1557.679688 2666.460938 1562.648438 2668.359375 1566.699219 C 2670.261719 1570.761719 2671.789062 1575.460938 2672.949219 1580.820312 C 2674.691406 1588.859375 2674.53125 1596.960938 2672.460938 1605.121094 C 2670.410156 1613.289062 2666.628906 1621.5 2661.160156 1629.761719 C 2655.671875 1638.019531 2648.210938 1646.878906 2638.769531 1656.308594 C 2643.320312 1656.089844 2646.878906 1655.710938 2649.429688 1655.160156 C 2654.421875 1654.078125 2659.539062 1651.660156 2664.789062 1647.910156 C 2670.039062 1644.160156 2675.21875 1639.539062 2680.339844 1634.03125 C 2685.460938 1628.519531 2691.320312 1621.539062 2697.910156 1613.109375 L 2700.558594 1625.351562 C 2688.261719 1643.949219 2676.808594 1658.511719 2666.199219 1669.03125 C 2655.601562 1679.550781 2645.851562 1685.769531 2636.960938 1687.691406 C 2625.5 1690.171875 2613.851562 1687.601562 2602 1679.949219 C 2595 1675.339844 2590.230469 1670.511719 2587.671875 1665.449219 C 2585.109375 1660.398438 2582.839844 1653.300781 2580.859375 1644.160156 "/>
<path fill-rule="nonzero" fill="rgb(74.414062%, 28.637695%, 60.351562%)" fill-opacity="1" d="M 2754.519531 1515.730469 C 2751.46875 1516.390625 2748.320312 1515.859375 2745.078125 1514.140625 C 2741.839844 1512.421875 2739.839844 1509.789062 2739.070312 1506.25 C 2737.921875 1500.890625 2739.179688 1494.378906 2742.878906 1486.691406 C 2746.570312 1479 2751.160156 1474.570312 2756.640625 1473.378906 C 2760.300781 1472.589844 2763.578125 1473.058594 2766.511719 1474.78125 C 2769.429688 1476.519531 2771.359375 1479.5 2772.28125 1483.769531 C 2773.410156 1489.011719 2772.160156 1495.339844 2768.539062 1502.75 C 2764.910156 1510.171875 2760.238281 1514.488281 2754.519531 1515.730469 Z M 2784.609375 1594.730469 L 2787.5 1608.070312 C 2778.96875 1625.859375 2770.429688 1639.71875 2761.871094 1649.671875 C 2753.308594 1659.628906 2745.441406 1665.378906 2738.25 1666.929688 C 2728.261719 1669.101562 2719.699219 1665.460938 2712.550781 1656.039062 C 2705.410156 1646.621094 2700.5 1635.691406 2697.808594 1623.261719 C 2696.789062 1618.511719 2696.289062 1613.871094 2696.328125 1609.328125 C 2696.371094 1604.800781 2696.75 1600.980469 2697.488281 1597.890625 C 2698.230469 1594.800781 2699.769531 1589.878906 2702.140625 1583.121094 C 2713.609375 1552.449219 2726.539062 1535.558594 2740.910156 1532.449219 C 2748.339844 1530.839844 2752.679688 1532.898438 2753.921875 1538.628906 C 2754.761719 1542.53125 2753.679688 1549.140625 2750.660156 1558.460938 C 2747.628906 1567.789062 2744.621094 1574.628906 2741.609375 1578.96875 C 2733.21875 1591.5 2727.851562 1600.128906 2725.488281 1604.839844 C 2723.128906 1609.570312 2722.5 1614.480469 2723.609375 1619.589844 C 2724.558594 1623.980469 2727 1627.28125 2730.921875 1629.488281 C 2734.839844 1631.710938 2739.421875 1632.238281 2744.660156 1631.109375 C 2750.378906 1629.871094 2756.230469 1626.410156 2762.210938 1620.71875 C 2768.179688 1615.03125 2775.648438 1606.371094 2784.609375 1594.730469 "/>
<path fill-rule="nonzero" fill="rgb(74.414062%, 28.637695%, 60.351562%)" fill-opacity="1" d="M 2898.980469 1535.371094 C 2882.699219 1563.890625 2875.578125 1582.828125 2877.609375 1592.210938 C 2878.75 1597.460938 2881.441406 1599.609375 2885.699219 1598.691406 C 2889.238281 1597.921875 2893.441406 1595.070312 2898.300781 1590.128906 C 2903.160156 1585.191406 2910.589844 1576.660156 2920.601562 1564.550781 L 2923.320312 1577.160156 C 2909.710938 1597.960938 2899.089844 1613.140625 2891.46875 1622.691406 C 2883.851562 1632.25 2877.109375 1637.660156 2871.261719 1638.921875 C 2861.269531 1641.089844 2854.859375 1635.589844 2852.011719 1622.429688 C 2851.160156 1618.53125 2850.949219 1614.558594 2851.351562 1610.519531 C 2851.75 1606.488281 2852.570312 1602.191406 2853.820312 1597.648438 C 2855.070312 1593.109375 2857.070312 1586.550781 2859.800781 1577.988281 C 2862.539062 1569.429688 2865.730469 1559.710938 2869.378906 1548.851562 C 2863.199219 1553.890625 2856 1562.78125 2847.789062 1575.519531 C 2842.390625 1583.578125 2837.960938 1591.070312 2834.480469 1598.011719 C 2831.011719 1604.949219 2827.339844 1612.628906 2823.488281 1621.039062 C 2819.640625 1629.460938 2816.730469 1635.199219 2814.78125 1638.230469 C 2812.820312 1641.269531 2810.558594 1643.058594 2808 1643.621094 C 2804.101562 1644.460938 2799.628906 1641.160156 2794.570312 1633.710938 C 2789.519531 1626.261719 2785.820312 1617.109375 2783.46875 1606.269531 C 2782.019531 1599.570312 2781.648438 1594.160156 2782.359375 1590.058594 C 2783.058594 1585.949219 2784.921875 1579.941406 2787.929688 1572.019531 C 2793.539062 1557.289062 2798.730469 1546.238281 2803.519531 1538.890625 C 2808.308594 1531.550781 2813.5 1527.269531 2819.109375 1526.058594 C 2823.011719 1525.210938 2826.289062 1525.210938 2828.960938 1526.03125 C 2831.621094 1526.859375 2833.261719 1528.671875 2833.859375 1531.46875 C 2834.128906 1532.691406 2834.039062 1534.050781 2833.601562 1535.550781 C 2833.160156 1537.050781 2832.601562 1538.441406 2831.921875 1539.738281 C 2831.25 1541.03125 2829.789062 1543.578125 2827.550781 1547.378906 C 2812.910156 1572.859375 2806.28125 1588.769531 2807.648438 1595.109375 C 2808.410156 1598.640625 2809.949219 1600.160156 2812.269531 1599.660156 C 2813.730469 1599.339844 2816.050781 1596.378906 2819.238281 1590.78125 C 2822.429688 1585.179688 2826.519531 1577.859375 2831.519531 1568.808594 C 2836.511719 1559.761719 2842.640625 1550.109375 2849.929688 1539.859375 C 2857.210938 1529.609375 2865.808594 1519.398438 2875.730469 1509.21875 C 2881.210938 1503.308594 2886.078125 1499.898438 2890.339844 1498.980469 C 2892.289062 1498.558594 2894.789062 1500.828125 2897.839844 1505.769531 C 2900.890625 1510.730469 2903 1515.941406 2904.191406 1521.429688 C 2904.769531 1524.109375 2903.03125 1528.75 2898.980469 1535.371094 "/>
<path fill-rule="nonzero" fill="rgb(74.414062%, 28.637695%, 60.351562%)" fill-opacity="1" d="M 2949.578125 1553.5 C 2959.621094 1546.871094 2967.859375 1539.539062 2974.289062 1531.511719 C 2980.710938 1523.5 2985.160156 1516.191406 2987.621094 1509.601562 C 2990.089844 1503.011719 2991.03125 1498.371094 2990.449219 1495.691406 C 2989.839844 1492.890625 2988.261719 1491.761719 2985.699219 1492.320312 C 2983.511719 1492.789062 2980.25 1494.960938 2975.921875 1498.828125 C 2971.589844 1502.699219 2967.378906 1507.441406 2963.300781 1513.039062 C 2959.230469 1518.640625 2955.839844 1524.921875 2953.128906 1531.878906 C 2950.429688 1538.851562 2949.238281 1546.050781 2949.578125 1553.5 Z M 2950.320312 1565.769531 L 2951.308594 1570.339844 C 2952.871094 1577.539062 2955.839844 1582.761719 2960.25 1586.011719 C 2964.648438 1589.269531 2969.710938 1590.269531 2975.441406 1589.03125 C 2981.410156 1587.738281 2987.289062 1585.011719 2993.078125 1580.820312 C 2998.871094 1576.640625 3004.429688 1571.550781 3009.769531 1565.539062 C 3015.101562 1559.539062 3021.488281 1551.660156 3028.949219 1541.878906 L 3031.359375 1553.03125 C 3021.171875 1572.570312 3011 1588.070312 3000.851562 1599.511719 C 2990.699219 1610.949219 2979.410156 1618.019531 2966.988281 1620.699219 C 2956.140625 1623.050781 2946.640625 1620.699219 2938.488281 1613.671875 C 2930.339844 1606.640625 2924.679688 1595.800781 2921.519531 1581.179688 C 2918.75 1568.390625 2919.230469 1556.140625 2922.949219 1544.441406 C 2926.660156 1532.730469 2934.03125 1519.628906 2945.050781 1505.128906 C 2952.589844 1495.210938 2960.5 1487.25 2968.769531 1481.25 C 2977.039062 1475.25 2984.761719 1471.480469 2991.949219 1469.921875 C 2997.679688 1468.679688 3002.5 1469.019531 3006.410156 1470.898438 C 3010.328125 1472.800781 3012.859375 1476.371094 3013.988281 1481.609375 C 3015.648438 1489.28125 3014.441406 1497.550781 3010.359375 1506.398438 C 3006.28125 1515.25 2999.179688 1524.699219 2989.039062 1534.730469 C 2978.898438 1544.769531 2966 1555.121094 2950.320312 1565.769531 "/>
<path fill-rule="nonzero" fill="rgb(74.414062%, 28.637695%, 60.351562%)" fill-opacity="1" d="M 3091.441406 1504.460938 L 3082.378906 1478.480469 C 3076.660156 1488.640625 3064.070312 1508.519531 3044.578125 1538.121094 C 3052.230469 1538.121094 3057.691406 1539.179688 3060.949219 1541.269531 C 3064.210938 1543.371094 3069.101562 1547.730469 3075.640625 1554.359375 C 3083.179688 1549.148438 3088.539062 1543.109375 3091.710938 1536.238281 C 3094.878906 1529.371094 3095.359375 1520.820312 3093.140625 1510.589844 C 3092.878906 1509.371094 3092.609375 1508.28125 3092.339844 1507.308594 C 3092.070312 1506.359375 3091.769531 1505.398438 3091.441406 1504.460938 Z M 3029.320312 1547.160156 L 3028.371094 1542.769531 C 3052.628906 1502.839844 3069.238281 1474.949219 3078.179688 1459.109375 C 3077.621094 1443.550781 3082.460938 1434.660156 3092.691406 1432.441406 C 3095.25 1431.890625 3098.148438 1432.03125 3101.390625 1432.859375 L 3103.238281 1436.089844 C 3103.070312 1437.660156 3103.269531 1439.789062 3103.851562 1442.46875 C 3104.351562 1444.78125 3106.160156 1448.890625 3109.289062 1454.78125 C 3112.410156 1460.671875 3114.921875 1465.640625 3116.820312 1469.691406 C 3118.710938 1473.75 3120.238281 1478.449219 3121.398438 1483.820312 C 3123.140625 1491.859375 3122.980469 1499.960938 3120.921875 1508.121094 C 3118.859375 1516.28125 3115.089844 1524.488281 3109.609375 1532.75 C 3104.128906 1541.019531 3096.671875 1549.871094 3087.230469 1559.308594 C 3091.78125 1559.089844 3095.328125 1558.710938 3097.878906 1558.148438 C 3102.878906 1557.070312 3108 1554.660156 3113.25 1550.898438 C 3118.488281 1547.160156 3123.679688 1542.53125 3128.800781 1537.019531 C 3133.921875 1531.519531 3139.78125 1524.539062 3146.371094 1516.101562 L 3149.019531 1528.339844 C 3136.710938 1546.949219 3125.269531 1561.511719 3114.660156 1572.019531 C 3104.050781 1582.539062 3094.300781 1588.769531 3085.410156 1590.691406 C 3073.960938 1593.160156 3062.300781 1590.589844 3050.449219 1582.949219 C 3043.460938 1578.339844 3038.679688 1573.511719 3036.128906 1568.449219 C 3033.558594 1563.390625 3031.300781 1556.289062 3029.320312 1547.160156 "/>
<path fill-rule="nonzero" fill="rgb(74.414062%, 28.637695%, 60.351562%)" fill-opacity="1" d="M 3208.210938 1479.199219 L 3199.148438 1453.21875 C 3193.441406 1463.390625 3180.839844 1483.269531 3161.351562 1512.859375 C 3169.011719 1512.859375 3174.460938 1513.921875 3177.71875 1516.011719 C 3180.980469 1518.109375 3185.878906 1522.46875 3192.410156 1529.101562 C 3199.960938 1523.890625 3205.320312 1517.859375 3208.480469 1510.980469 C 3211.648438 1504.109375 3212.128906 1495.558594 3209.921875 1485.328125 C 3209.660156 1484.109375 3209.390625 1483.019531 3209.109375 1482.050781 C 3208.839844 1481.101562 3208.539062 1480.140625 3208.210938 1479.199219 Z M 3146.089844 1521.898438 L 3145.140625 1517.511719 C 3169.410156 1477.578125 3186.011719 1449.691406 3194.960938 1433.851562 C 3194.390625 1418.289062 3199.230469 1409.398438 3209.46875 1407.179688 C 3212.019531 1406.628906 3214.929688 1406.769531 3218.160156 1407.601562 L 3220.011719 1410.839844 C 3219.839844 1412.398438 3220.050781 1414.53125 3220.628906 1417.210938 C 3221.128906 1419.519531 3222.941406 1423.628906 3226.058594 1429.519531 C 3229.179688 1435.410156 3231.699219 1440.378906 3233.589844 1444.429688 C 3235.488281 1448.488281 3237.019531 1453.199219 3238.179688 1458.558594 C 3239.910156 1466.601562 3239.761719 1474.699219 3237.699219 1482.859375 C 3235.640625 1491.019531 3231.859375 1499.230469 3226.378906 1507.5 C 3220.898438 1515.761719 3213.441406 1524.609375 3204 1534.050781 C 3208.550781 1533.828125 3212.101562 1533.449219 3214.660156 1532.890625 C 3219.648438 1531.808594 3224.769531 1529.398438 3230.019531 1525.640625 C 3235.269531 1521.898438 3240.449219 1517.269531 3245.570312 1511.761719 C 3250.699219 1506.261719 3256.550781 1499.28125 3263.140625 1490.839844 L 3265.789062 1503.078125 C 3253.488281 1521.691406 3242.039062 1536.25 3231.429688 1546.769531 C 3220.820312 1557.28125 3211.078125 1563.511719 3202.191406 1565.429688 C 3190.730469 1567.910156 3179.078125 1565.328125 3167.230469 1557.691406 C 3160.230469 1553.078125 3155.460938 1548.25 3152.898438 1543.191406 C 3150.339844 1538.128906 3148.070312 1531.039062 3146.089844 1521.898438 "/>
<path fill-rule="nonzero" fill="rgb(74.414062%, 28.637695%, 60.351562%)" fill-opacity="1" d="M 2493.429688 1983.429688 C 2504.269531 1942.03125 2511.941406 1909.679688 2516.449219 1886.390625 C 2520.960938 1863.101562 2522.390625 1848.710938 2520.730469 1843.210938 C 2520.128906 1841.191406 2518.910156 1839.730469 2517.078125 1838.851562 C 2515.25 1837.96875 2513.378906 1837.820312 2511.46875 1838.390625 C 2507.769531 1839.5 2498.410156 1846.230469 2483.378906 1858.558594 C 2470.960938 1868.800781 2462.011719 1876.671875 2456.511719 1882.171875 C 2451 1887.671875 2443.480469 1895.429688 2433.941406 1905.460938 C 2424.398438 1915.488281 2418.789062 1920.761719 2417.121094 1921.261719 C 2413.78125 1922.269531 2411.398438 1920.441406 2410 1915.789062 C 2407.339844 1906.960938 2409.558594 1893.339844 2416.640625 1874.929688 C 2423.730469 1856.53125 2435.378906 1838.769531 2451.570312 1821.660156 C 2453.488281 1819.390625 2454.71875 1819.148438 2455.261719 1820.941406 C 2455.441406 1821.539062 2454.421875 1823.351562 2452.199219 1826.351562 C 2449.980469 1829.359375 2448.109375 1832.300781 2446.558594 1835.179688 C 2445.019531 1838.050781 2443.539062 1842.109375 2442.121094 1847.359375 C 2463.410156 1827.28125 2479.171875 1812.898438 2489.378906 1804.230469 C 2499.589844 1795.558594 2508.878906 1789.96875 2517.230469 1787.449219 C 2524.511719 1785.261719 2530.699219 1785.058594 2535.789062 1786.851562 C 2540.878906 1788.628906 2544.289062 1792.390625 2546.019531 1798.121094 C 2547.53125 1803.128906 2547.71875 1811.019531 2546.589844 1821.769531 C 2545.46875 1832.519531 2543.140625 1845.878906 2539.621094 1861.839844 C 2536.089844 1877.808594 2532.378906 1893.671875 2528.460938 1909.429688 C 2524.539062 1925.179688 2517.46875 1953.671875 2507.230469 1994.890625 C 2521.648438 1958.921875 2535.320312 1927.148438 2548.238281 1899.570312 C 2561.160156 1871.988281 2572.789062 1849.21875 2583.128906 1831.269531 C 2593.480469 1813.320312 2602.570312 1799.421875 2610.421875 1789.578125 C 2618.261719 1779.730469 2624.511719 1774.101562 2629.160156 1772.699219 C 2630.828125 1772.199219 2633.28125 1773.191406 2636.5 1775.671875 C 2639.71875 1778.160156 2642.910156 1781.390625 2646.058594 1785.390625 C 2649.21875 1789.378906 2651.230469 1792.808594 2652.089844 1795.679688 C 2654.460938 1803.558594 2654.808594 1811.980469 2653.148438 1820.941406 C 2651.480469 1829.898438 2648.351562 1841 2643.738281 1854.230469 C 2630.421875 1891.300781 2621.230469 1920.101562 2616.148438 1940.628906 C 2611.070312 1961.171875 2610.128906 1976.75 2613.320312 1987.371094 C 2615.730469 1995.371094 2621.109375 1998.109375 2629.460938 1995.589844 C 2633.289062 1994.441406 2637.328125 1991.660156 2641.601562 1987.25 C 2645.871094 1982.839844 2650.691406 1976.578125 2656.050781 1968.449219 C 2661.421875 1960.328125 2666.679688 1951.660156 2671.839844 1942.421875 L 2676.410156 1956.269531 C 2669.300781 1969.871094 2662.808594 1981.621094 2656.941406 1991.519531 C 2651.070312 2001.421875 2645.371094 2010.269531 2639.839844 2018.050781 C 2634.300781 2025.828125 2629.109375 2032.011719 2624.238281 2036.609375 C 2619.371094 2041.191406 2614.789062 2044.128906 2610.488281 2045.429688 C 2604.289062 2047.300781 2598.660156 2046.671875 2593.628906 2043.570312 C 2588.589844 2040.460938 2585.039062 2035.449219 2582.949219 2028.53125 C 2581.011719 2022.078125 2580.070312 2013.878906 2580.128906 2003.898438 C 2580.179688 1993.921875 2581.308594 1982.101562 2583.511719 1968.421875 C 2585.699219 1954.738281 2588.96875 1939.628906 2593.300781 1923.101562 C 2597.628906 1906.570312 2602.890625 1889.109375 2609.058594 1870.71875 C 2615.039062 1852.519531 2617.378906 1841.269531 2616.089844 1836.96875 C 2615.339844 1834.460938 2613.640625 1833.609375 2611.019531 1834.398438 C 2600.398438 1837.601562 2582.550781 1866.070312 2557.460938 1919.828125 C 2555.859375 1923.179688 2553.179688 1929.289062 2549.410156 1938.171875 C 2545.640625 1947.050781 2541.878906 1956.410156 2538.140625 1966.25 C 2534.398438 1976.109375 2530.210938 1987.160156 2525.578125 1999.429688 C 2520.929688 2011.691406 2516.230469 2024.140625 2511.441406 2036.78125 C 2509.210938 2042.789062 2506.78125 2046.179688 2504.160156 2046.96875 C 2501.289062 2047.839844 2496.828125 2046.640625 2490.769531 2043.378906 C 2484.71875 2040.128906 2481.371094 2037.429688 2480.71875 2035.28125 C 2479.960938 2032.769531 2481.390625 2025.519531 2485 2013.488281 C 2488.609375 2001.46875 2491.410156 1991.449219 2493.429688 1983.429688 "/>
<path fill-rule="nonzero" fill="rgb(74.414062%, 28.637695%, 60.351562%)" fill-opacity="1" d="M 2762.28125 1860.140625 C 2735.519531 1883.679688 2717.039062 1902.390625 2706.828125 1916.269531 C 2696.628906 1930.148438 2693.101562 1942.339844 2696.261719 1952.839844 C 2697.410156 1956.660156 2699.011719 1959.601562 2701.058594 1961.640625 C 2703.109375 1963.699219 2705.269531 1964.378906 2707.539062 1963.699219 C 2708.851562 1963.308594 2710.929688 1961.769531 2713.761719 1959.089844 C 2724.070312 1947.921875 2732.628906 1934.828125 2739.441406 1919.828125 C 2746.25 1904.828125 2753.859375 1884.929688 2762.28125 1860.140625 Z M 2682.449219 1905.640625 C 2695.628906 1883.710938 2709.550781 1866.179688 2724.21875 1853.039062 C 2738.878906 1839.910156 2750.859375 1831.941406 2760.171875 1829.140625 C 2762.679688 1828.378906 2765.320312 1828.730469 2768.101562 1830.179688 C 2770.878906 1831.621094 2773.300781 1833.519531 2775.390625 1835.890625 C 2777.460938 1838.261719 2778.699219 1840.101562 2779.101562 1841.410156 C 2779.738281 1843.558594 2779.378906 1845.390625 2778.019531 1846.910156 C 2776.648438 1848.429688 2774.101562 1850.53125 2770.351562 1853.21875 C 2771.761719 1854.878906 2773.570312 1857.011719 2775.78125 1859.589844 C 2777.988281 1862.179688 2779.730469 1864.289062 2781.011719 1865.921875 C 2782.28125 1867.558594 2783.128906 1869.089844 2783.570312 1870.53125 C 2784.429688 1873.390625 2783.140625 1879.609375 2779.699219 1889.160156 C 2776.269531 1898.71875 2773.949219 1905.710938 2772.730469 1910.101562 C 2771.519531 1914.511719 2771.710938 1919.390625 2773.328125 1924.761719 C 2775.988281 1933.589844 2781.378906 1936.789062 2789.488281 1934.339844 C 2797.851562 1931.828125 2808.570312 1920.078125 2821.640625 1899.089844 L 2824.929688 1910.011719 C 2804.828125 1952.640625 2788.269531 1975.910156 2775.261719 1979.828125 C 2770.609375 1981.230469 2766.839844 1980.699219 2763.949219 1978.261719 C 2761.070312 1975.800781 2758.730469 1971.589844 2756.929688 1965.628906 C 2754.089844 1956.199219 2753.378906 1941.5 2754.800781 1921.550781 C 2743.191406 1946.128906 2734.378906 1963.789062 2728.371094 1974.519531 C 2722.351562 1985.238281 2716.601562 1991.429688 2711.109375 1993.078125 C 2708.480469 1993.871094 2704.519531 1992.589844 2699.210938 1989.238281 C 2693.910156 1985.890625 2688.648438 1981.070312 2683.429688 1974.761719 C 2678.210938 1968.460938 2674.441406 1961.429688 2672.109375 1953.671875 C 2670.421875 1948.058594 2669.550781 1943.210938 2669.480469 1939.128906 C 2669.429688 1935.039062 2670.359375 1930.570312 2672.269531 1925.691406 C 2674.199219 1920.820312 2677.589844 1914.140625 2682.449219 1905.640625 "/>
<path fill-rule="nonzero" fill="rgb(74.414062%, 28.637695%, 60.351562%)" fill-opacity="1" d="M 2909.128906 1899.121094 C 2921.210938 1879.601562 2931.539062 1862.671875 2940.109375 1848.300781 C 2948.671875 1833.949219 2955.390625 1822.648438 2960.269531 1814.410156 C 2965.140625 1806.179688 2969.5 1799.140625 2973.339844 1793.300781 C 2977.179688 1787.460938 2979.820312 1784.320312 2981.25 1783.890625 C 2983.949219 1782.941406 2987.441406 1784.988281 2991.679688 1790.019531 C 2995.929688 1795.058594 2998.578125 1799.300781 2999.621094 1802.769531 C 3000.300781 1805.03125 2998.121094 1811.519531 2993.070312 1822.210938 C 2988.019531 1832.910156 2984.378906 1841.328125 2982.128906 1847.46875 C 2979.878906 1853.621094 2979.578125 1859.429688 2981.230469 1864.921875 C 2982.199219 1868.148438 2984.050781 1870.421875 2986.800781 1871.738281 C 2989.539062 1873.058594 2992.398438 1873.28125 2995.378906 1872.378906 C 2998.839844 1871.339844 3002.449219 1868.300781 3006.210938 1863.261719 C 3009.960938 1858.230469 3015.648438 1849.550781 3023.269531 1837.230469 L 3027.101562 1849.949219 C 3019.660156 1862.859375 3012.769531 1874.140625 3006.441406 1883.800781 C 3000.089844 1893.449219 2994.328125 1900.980469 2989.121094 1906.378906 C 2983.910156 1911.789062 2979.21875 1915.121094 2975.039062 1916.378906 C 2971.339844 1917.488281 2967.820312 1917.019531 2964.46875 1914.980469 C 2961.121094 1912.929688 2958.808594 1909.808594 2957.550781 1905.628906 C 2956.328125 1901.578125 2955.808594 1897.238281 2955.980469 1892.628906 C 2956.160156 1888.019531 2956.878906 1882.410156 2958.140625 1875.78125 C 2959.390625 1869.148438 2961.261719 1861.070312 2963.730469 1851.539062 C 2966.199219 1842.011719 2968.460938 1833.300781 2970.5 1825.390625 C 2961.308594 1838.960938 2953.378906 1851.761719 2946.71875 1863.789062 C 2940.058594 1875.820312 2934.769531 1886.160156 2930.871094 1894.820312 C 2926.96875 1903.480469 2923.878906 1910.300781 2921.601562 1915.28125 C 2917.140625 1924.691406 2912.050781 1930.261719 2906.328125 1931.980469 C 2900.121094 1933.851562 2895.691406 1930.371094 2893.03125 1921.539062 C 2891.949219 1917.960938 2892.339844 1910.839844 2894.21875 1900.191406 C 2896.089844 1889.539062 2899.160156 1875.761719 2903.449219 1858.851562 C 2903.878906 1857.679688 2903.789062 1856.078125 2903.171875 1854.050781 C 2902.449219 1851.671875 2900.910156 1850.828125 2898.519531 1851.550781 C 2895.890625 1852.339844 2892.839844 1855.960938 2889.378906 1862.398438 C 2885.921875 1868.851562 2879.460938 1882.078125 2870 1902.109375 C 2867.390625 1907.710938 2864.679688 1914.808594 2861.859375 1923.398438 C 2859.039062 1932 2856.921875 1937.800781 2855.488281 1940.839844 C 2854.058594 1943.878906 2852.269531 1945.710938 2850.128906 1946.359375 C 2845.828125 1947.648438 2840.679688 1945.039062 2834.679688 1938.511719 C 2828.679688 1931.988281 2824.160156 1923.648438 2821.101562 1913.511719 C 2818.878906 1906.109375 2818.179688 1899.351562 2819 1893.238281 C 2819.839844 1887.140625 2821.609375 1879.320312 2824.339844 1869.78125 C 2828.851562 1855.789062 2832.898438 1845.558594 2836.480469 1839.070312 C 2840.058594 1832.601562 2844.660156 1828.511719 2850.269531 1826.820312 C 2853.730469 1825.78125 2856.859375 1825.589844 2859.660156 1826.238281 C 2862.460938 1826.898438 2864.21875 1828.421875 2864.941406 1830.800781 C 2865.691406 1833.308594 2864.75 1838.078125 2862.128906 1845.128906 C 2859.488281 1852.160156 2855.75 1859.730469 2850.890625 1867.828125 C 2848.359375 1872.378906 2846.238281 1877.660156 2844.550781 1883.710938 C 2842.851562 1889.75 2842.339844 1893.898438 2843.019531 1896.171875 C 2843.988281 1899.390625 2845.730469 1900.628906 2848.238281 1899.878906 C 2850.269531 1899.269531 2854.140625 1893.539062 2859.859375 1882.710938 C 2865.589844 1871.878906 2871.890625 1860.050781 2878.769531 1847.238281 C 2885.648438 1834.429688 2892.320312 1823.511719 2898.78125 1814.46875 C 2905.230469 1805.429688 2911.390625 1800.03125 2917.238281 1798.269531 C 2920.820312 1797.199219 2924.179688 1797.648438 2927.308594 1799.628906 C 2930.449219 1801.621094 2932.609375 1804.578125 2933.789062 1808.519531 C 2934.578125 1811.140625 2934.21875 1816.429688 2932.710938 1824.371094 C 2931.191406 1832.308594 2928.519531 1842.359375 2924.699219 1854.5 C 2920.859375 1866.660156 2915.671875 1881.53125 2909.128906 1899.121094 "/>
<path fill-rule="nonzero" fill="rgb(74.414062%, 28.637695%, 60.351562%)" fill-opacity="1" d="M 3051.109375 1823.980469 C 3060.589844 1816.570312 3068.21875 1808.609375 3073.988281 1800.101562 C 3079.761719 1791.601562 3083.609375 1783.960938 3085.550781 1777.199219 C 3087.480469 1770.429688 3088.050781 1765.730469 3087.269531 1763.109375 C 3086.441406 1760.359375 3084.769531 1759.371094 3082.269531 1760.128906 C 3080.121094 1760.769531 3077.039062 1763.191406 3073.03125 1767.390625 C 3069.019531 1771.601562 3065.199219 1776.648438 3061.578125 1782.550781 C 3057.960938 1788.460938 3055.078125 1794.988281 3052.929688 1802.148438 C 3050.789062 1809.300781 3050.179688 1816.578125 3051.109375 1823.980469 Z M 3052.820312 1836.148438 L 3054.160156 1840.628906 C 3056.289062 1847.679688 3059.660156 1852.640625 3064.320312 1855.539062 C 3068.960938 1858.429688 3074.089844 1859.039062 3079.699219 1857.351562 C 3085.550781 1855.589844 3091.191406 1852.390625 3096.628906 1847.761719 C 3102.070312 1843.128906 3107.210938 1837.621094 3112.050781 1831.210938 C 3116.890625 1824.808594 3122.640625 1816.441406 3129.300781 1806.109375 L 3132.578125 1817.03125 C 3123.980469 1837.320312 3115.070312 1853.570312 3105.859375 1865.78125 C 3096.648438 1877.988281 3085.960938 1885.929688 3073.78125 1889.589844 C 3063.160156 1892.789062 3053.5 1891.199219 3044.820312 1884.839844 C 3036.128906 1878.460938 3029.640625 1868.121094 3025.328125 1853.800781 C 3021.550781 1841.269531 3021.050781 1829.019531 3023.839844 1817.050781 C 3026.609375 1805.089844 3032.921875 1791.449219 3042.75 1776.109375 C 3049.488281 1765.628906 3056.738281 1757.070312 3064.511719 1750.429688 C 3072.269531 1743.800781 3079.679688 1739.421875 3086.71875 1737.300781 C 3092.328125 1735.621094 3097.160156 1735.558594 3101.21875 1737.140625 C 3105.269531 1738.71875 3108.070312 1742.078125 3109.621094 1747.210938 C 3111.878906 1754.71875 3111.328125 1763.058594 3107.960938 1772.210938 C 3104.601562 1781.359375 3098.261719 1791.328125 3088.949219 1802.140625 C 3079.640625 1812.949219 3067.601562 1824.28125 3052.820312 1836.148438 "/>
<path fill="none" stroke-width="150" stroke-linecap="round" stroke-linejoin="miter" stroke="rgb(41.184998%, 30.200195%, 19.604492%)" stroke-opacity="1" stroke-miterlimit="10" d="M 8824.84375 15363.710938 C 9107.03125 15131.796875 9434.53125 14954.414062 9790.351562 14846.289062 " transform="matrix(0.1, 0, 0, -0.1, 0, 4000)"/>
<path fill="none" stroke-width="150" stroke-linecap="round" stroke-linejoin="miter" stroke="rgb(41.184998%, 30.200195%, 19.604492%)" stroke-opacity="1" stroke-miterlimit="10" d="M 8087.34375 16636.796875 C 8170.117188 16355.78125 8295.664062 16093.007812 8456.5625 15856.210938 " transform="matrix(0.1, 0, 0, -0.1, 0, 4000)"/>
<path fill-rule="nonzero" fill="rgb(41.184998%, 30.200195%, 19.604492%)" fill-opacity="1" d="M 3685.851562 1823.769531 C 3681.710938 1823.769531 3678.359375 1820.421875 3678.351562 1816.289062 C 3678.261719 1781.910156 3676.628906 1746.160156 3673.5 1710.011719 C 3673.148438 1705.890625 3676.199219 1702.25 3680.328125 1701.890625 C 3684.449219 1701.539062 3688.089844 1704.589844 3688.449219 1708.71875 C 3691.609375 1745.28125 3693.261719 1781.460938 3693.351562 1816.25 C 3693.359375 1820.390625 3690.011719 1823.761719 3685.871094 1823.769531 C 3685.859375 1823.769531 3685.851562 1823.769531 3685.851562 1823.769531 "/>
<path fill-rule="nonzero" fill="rgb(41.184998%, 30.200195%, 19.604492%)" fill-opacity="1" d="M 3678.53125 1649.820312 C 3674.859375 1649.820312 3671.648438 1647.121094 3671.109375 1643.378906 C 3670.328125 1637.878906 3669.5 1632.289062 3668.640625 1626.761719 C 3663.480469 1593.558594 3657.191406 1560.550781 3649.941406 1528.660156 C 3649.019531 1524.621094 3651.550781 1520.601562 3655.589844 1519.679688 C 3659.628906 1518.769531 3663.648438 1521.289062 3664.558594 1525.328125 C 3671.890625 1557.558594 3678.25 1590.910156 3683.46875 1624.46875 C 3684.328125 1630.058594 3685.171875 1635.699219 3685.960938 1641.261719 C 3686.550781 1645.359375 3683.699219 1649.160156 3679.601562 1649.738281 C 3679.238281 1649.789062 3678.878906 1649.820312 3678.53125 1649.820312 "/>
<path fill-rule="nonzero" fill="rgb(41.184998%, 30.200195%, 19.604492%)" fill-opacity="1" d="M 3642.160156 1480.558594 C 3638.910156 1480.558594 3635.910156 1478.429688 3634.960938 1475.148438 C 3628.949219 1454.480469 3622.5 1434.269531 3615.769531 1415.089844 C 3614.398438 1411.179688 3616.460938 1406.898438 3620.371094 1405.53125 C 3624.269531 1404.160156 3628.558594 1406.210938 3629.929688 1410.121094 C 3636.738281 1429.558594 3643.28125 1450.03125 3649.359375 1470.96875 C 3650.519531 1474.949219 3648.230469 1479.109375 3644.25 1480.269531 C 3643.550781 1480.46875 3642.851562 1480.558594 3642.160156 1480.558594 "/>
<path fill-rule="nonzero" fill="rgb(41.184998%, 30.200195%, 19.604492%)" fill-opacity="1" d="M 2924.050781 2612.621094 C 2923 2612.621094 2921.929688 2612.390625 2920.910156 2611.929688 C 2901.609375 2603.03125 2884.199219 2589.921875 2870.578125 2574 C 2867.878906 2570.851562 2868.25 2566.121094 2871.398438 2563.429688 C 2874.539062 2560.730469 2879.28125 2561.101562 2881.96875 2564.25 C 2894.199219 2578.53125 2909.828125 2590.308594 2927.191406 2598.300781 C 2930.949219 2600.03125 2932.601562 2604.488281 2930.859375 2608.25 C 2929.601562 2611 2926.878906 2612.621094 2924.050781 2612.621094 "/>
<path fill-rule="nonzero" fill="rgb(41.184998%, 30.200195%, 19.604492%)" fill-opacity="1" d="M 2984.710938 2625.800781 C 2980.570312 2625.800781 2977.210938 2622.449219 2977.210938 2618.300781 C 2977.210938 2614.160156 2980.570312 2610.800781 2984.710938 2610.800781 C 3001.308594 2610.800781 3017.46875 2607.921875 3032.75 2602.230469 C 3058.050781 2592.839844 3079.480469 2576.480469 3094.710938 2554.898438 C 3097.101562 2551.519531 3101.78125 2550.710938 3105.171875 2553.101562 C 3108.550781 2555.488281 3109.359375 2560.171875 3106.96875 2563.550781 C 3089.980469 2587.609375 3066.121094 2605.851562 3037.980469 2616.289062 C 3021.019531 2622.601562 3003.101562 2625.800781 2984.710938 2625.800781 "/>
<path fill-rule="nonzero" fill="rgb(41.184998%, 30.200195%, 19.604492%)" fill-opacity="1" d="M 2454.660156 1264.511719 C 2451.328125 1264.511719 2448.289062 1262.28125 2447.410156 1258.921875 C 2446.351562 1254.910156 2448.75 1250.808594 2452.75 1249.75 C 2473.851562 1244.199219 2495.578125 1239.359375 2517.339844 1235.378906 C 2521.410156 1234.628906 2525.320312 1237.328125 2526.070312 1241.398438 C 2526.808594 1245.480469 2524.121094 1249.390625 2520.039062 1250.128906 C 2498.660156 1254.050781 2477.300781 1258.800781 2456.570312 1264.261719 C 2455.929688 1264.429688 2455.289062 1264.511719 2454.660156 1264.511719 "/>
<path fill-rule="nonzero" fill="rgb(41.184998%, 30.200195%, 19.604492%)" fill-opacity="1" d="M 2297.511719 1325.171875 C 2294.839844 1325.171875 2292.261719 1323.738281 2290.898438 1321.21875 C 2288.941406 1317.570312 2290.308594 1313.03125 2293.960938 1311.058594 C 2325.019531 1294.359375 2359.300781 1279.53125 2395.851562 1266.96875 C 2399.769531 1265.621094 2404.03125 1267.710938 2405.378906 1271.628906 C 2406.71875 1275.539062 2404.640625 1279.808594 2400.71875 1281.160156 C 2364.941406 1293.449219 2331.410156 1307.960938 2301.058594 1324.28125 C 2299.929688 1324.878906 2298.710938 1325.171875 2297.511719 1325.171875 "/>
<path fill-rule="nonzero" fill="rgb(41.184998%, 30.200195%, 19.604492%)" fill-opacity="1" d="M 2228 1370.070312 C 2225.78125 1370.070312 2223.578125 1369.089844 2222.101562 1367.199219 C 2219.539062 1363.941406 2220.109375 1359.230469 2223.371094 1356.671875 C 2234.160156 1348.210938 2245.941406 1339.878906 2258.390625 1331.910156 C 2261.878906 1329.679688 2266.519531 1330.699219 2268.75 1334.179688 C 2270.980469 1337.671875 2269.96875 1342.308594 2266.480469 1344.539062 C 2254.429688 1352.261719 2243.039062 1360.308594 2232.628906 1368.46875 C 2231.25 1369.550781 2229.621094 1370.070312 2228 1370.070312 "/>
<path fill-rule="nonzero" fill="rgb(41.184998%, 30.200195%, 19.604492%)" fill-opacity="1" d="M 2239.179688 2083.878906 C 2238.589844 2083.878906 2238 2083.820312 2237.410156 2083.671875 C 2222.921875 2080.160156 2208.25 2076.050781 2193.828125 2071.46875 C 2142.828125 2055.25 2095.21875 2033.238281 2056.160156 2007.820312 C 2052.691406 2005.558594 2051.710938 2000.910156 2053.960938 1997.441406 C 2056.21875 1993.96875 2060.871094 1992.988281 2064.339844 1995.25 C 2102.289062 2019.949219 2148.640625 2041.359375 2198.378906 2057.171875 C 2212.46875 2061.648438 2226.789062 2065.671875 2240.941406 2069.089844 C 2244.960938 2070.070312 2247.441406 2074.121094 2246.460938 2078.148438 C 2245.628906 2081.578125 2242.558594 2083.878906 2239.179688 2083.878906 "/>
<path fill-rule="nonzero" fill="rgb(41.184998%, 30.200195%, 19.604492%)" fill-opacity="1" d="M 2347.898438 2114.199219 C 2347.429688 2114.199219 2346.949219 2114.160156 2346.46875 2114.058594 C 2326.960938 2110.28125 2306.390625 2104.628906 2285.328125 2097.25 C 2281.421875 2095.890625 2279.371094 2091.609375 2280.730469 2087.699219 C 2282.101562 2083.789062 2286.378906 2081.730469 2290.289062 2083.101562 C 2310.671875 2090.230469 2330.53125 2095.691406 2349.320312 2099.339844 C 2353.390625 2100.121094 2356.050781 2104.058594 2355.261719 2108.128906 C 2354.558594 2111.710938 2351.421875 2114.199219 2347.898438 2114.199219 "/>
<path fill-rule="nonzero" fill="rgb(41.184998%, 30.200195%, 19.604492%)" fill-opacity="1" d="M 1812.449219 3045.019531 C 1812.019531 3045.019531 1811.589844 3044.980469 1811.160156 3044.910156 C 1807.078125 3044.210938 1804.339844 3040.328125 1805.050781 3036.238281 C 1806.460938 3028.058594 1807.820312 3019.679688 1809.089844 3011.328125 C 1809.710938 3007.230469 1813.539062 3004.421875 1817.628906 3005.039062 C 1821.71875 3005.660156 1824.539062 3009.480469 1823.921875 3013.578125 C 1822.628906 3022.03125 1821.261719 3030.511719 1819.828125 3038.789062 C 1819.199219 3042.449219 1816.03125 3045.019531 1812.449219 3045.019531 "/>
<path fill-rule="nonzero" fill="rgb(41.184998%, 30.200195%, 19.604492%)" fill-opacity="1" d="M 1826.46875 2974.988281 C 1826.03125 2974.988281 1825.578125 2974.949219 1825.128906 2974.859375 C 1821.050781 2974.128906 1818.351562 2970.21875 1819.078125 2966.148438 C 1822.960938 2944.71875 1826.5 2922.691406 1829.578125 2900.660156 C 1832.789062 2877.820312 1835.53125 2854.96875 1837.71875 2832.738281 C 1838.128906 2828.621094 1841.789062 2825.621094 1845.921875 2826.011719 C 1850.039062 2826.421875 1853.050781 2830.089844 1852.648438 2834.210938 C 1850.441406 2856.640625 1847.671875 2879.699219 1844.441406 2902.75 C 1841.320312 2924.96875 1837.761719 2947.199219 1833.839844 2968.820312 C 1833.191406 2972.441406 1830.03125 2974.988281 1826.46875 2974.988281 "/>
<path fill-rule="nonzero" fill="rgb(41.184998%, 30.200195%, 19.604492%)" fill-opacity="1" d="M 1855.910156 1573.25 C 1855.730469 1573.25 1855.539062 1573.238281 1855.351562 1573.230469 C 1851.21875 1572.929688 1848.121094 1569.328125 1848.421875 1565.199219 C 1851.148438 1527.980469 1844.601562 1484.089844 1829.480469 1438.28125 C 1828.179688 1434.351562 1830.320312 1430.109375 1834.25 1428.808594 C 1838.179688 1427.511719 1842.421875 1429.648438 1843.71875 1433.578125 C 1859.449219 1481.238281 1866.25 1527.140625 1863.378906 1566.300781 C 1863.089844 1570.238281 1859.800781 1573.25 1855.910156 1573.25 "/>
<path fill-rule="nonzero" fill="rgb(41.184998%, 30.200195%, 19.604492%)" fill-opacity="1" d="M 1794.660156 1349.578125 C 1792.050781 1349.578125 1789.511719 1348.210938 1788.128906 1345.78125 C 1757.449219 1291.699219 1719.46875 1245.648438 1678.300781 1212.601562 C 1675.070312 1210 1674.550781 1205.28125 1677.148438 1202.050781 C 1679.738281 1198.820312 1684.460938 1198.308594 1687.691406 1200.898438 C 1730.320312 1235.128906 1769.570312 1282.671875 1801.179688 1338.378906 C 1803.21875 1341.980469 1801.960938 1346.558594 1798.359375 1348.601562 C 1797.191406 1349.261719 1795.921875 1349.578125 1794.660156 1349.578125 "/>
<path fill="none" stroke-width="50" stroke-linecap="round" stroke-linejoin="miter" stroke="rgb(68.164062%, 51.756287%, 18.041992%)" stroke-opacity="1" stroke-miterlimit="10" d="M 9412.109375 28324.414062 C 9971.992188 28789.804688 10672.109375 29130 11452.109375 29292.8125 " transform="matrix(0.1, 0, 0, -0.1, 0, 4000)"/>
<path fill="none" stroke-width="50" stroke-linecap="round" stroke-linejoin="miter" stroke="rgb(68.164062%, 51.756287%, 18.041992%)" stroke-opacity="1" stroke-miterlimit="10" d="M 8681.992188 27607.8125 C 8816.015625 27761.601562 8963.359375 27905.390625 9122.460938 28038.203125 " transform="matrix(0.1, 0, 0, -0.1, 0, 4000)"/>
<path fill-rule="nonzero" fill="rgb(19.604492%, 14.501953%, 7.054138%)" fill-opacity="1" d="M 2127.171875 1229.949219 C 2127.171875 1242.550781 2100.519531 1252.769531 2067.660156 1252.769531 C 2034.789062 1252.769531 2008.148438 1242.550781 2008.148438 1229.949219 C 2008.148438 1217.351562 2034.789062 1207.128906 2067.660156 1207.128906 C 2100.519531 1207.128906 2127.171875 1217.351562 2127.171875 1229.949219 "/>
<path fill-rule="nonzero" fill="rgb(19.604492%, 14.501953%, 7.054138%)" fill-opacity="1" d="M 2330.140625 1109.738281 C 2330.140625 1122.53125 2308.070312 1132.910156 2280.851562 1132.910156 C 2253.621094 1132.910156 2231.550781 1122.53125 2231.550781 1109.738281 C 2231.550781 1096.949219 2253.621094 1086.578125 2280.851562 1086.578125 C 2308.070312 1086.578125 2330.140625 1096.949219 2330.140625 1109.738281 "/>
<path fill-rule="nonzero" fill="rgb(19.604492%, 14.501953%, 7.054138%)" fill-opacity="1" d="M 2991.230469 1207.03125 C 2991.230469 1222.679688 2963.050781 1235.378906 2928.261719 1235.378906 C 2893.480469 1235.378906 2865.300781 1222.679688 2865.300781 1207.03125 C 2865.300781 1191.378906 2893.480469 1178.691406 2928.261719 1178.691406 C 2963.050781 1178.691406 2991.230469 1191.378906 2991.230469 1207.03125 "/>
<path fill-rule="nonzero" fill="rgb(19.604492%, 14.501953%, 7.054138%)" fill-opacity="1" d="M 2394.210938 2414.378906 C 2394.210938 2429.238281 2373.480469 2441.28125 2347.890625 2441.28125 C 2322.320312 2441.28125 2301.578125 2429.238281 2301.578125 2414.378906 C 2301.578125 2399.53125 2322.320312 2387.488281 2347.890625 2387.488281 C 2373.480469 2387.488281 2394.210938 2399.53125 2394.210938 2414.378906 "/>
<path fill-rule="nonzero" fill="rgb(19.604492%, 14.501953%, 7.054138%)" fill-opacity="1" d="M 3250.859375 2106.699219 C 3250.859375 2121.558594 3230.121094 2133.601562 3204.539062 2133.601562 C 3178.949219 2133.601562 3158.210938 2121.558594 3158.210938 2106.699219 C 3158.210938 2091.859375 3178.949219 2079.808594 3204.539062 2079.808594 C 3230.121094 2079.808594 3250.859375 2091.859375 3250.859375 2106.699219 "/>
<path fill-rule="nonzero" fill="rgb(19.604492%, 14.501953%, 7.054138%)" fill-opacity="1" d="M 2015.691406 2755.699219 C 2015.691406 2770.539062 1994.960938 2782.578125 1969.378906 2782.578125 C 1943.789062 2782.578125 1923.058594 2770.539062 1923.058594 2755.699219 C 1923.058594 2740.839844 1943.789062 2728.800781 1969.378906 2728.800781 C 1994.960938 2728.800781 2015.691406 2740.839844 2015.691406 2755.699219 "/>
<path fill-rule="nonzero" fill="rgb(19.604492%, 14.501953%, 7.054138%)" fill-opacity="1" d="M 2720.140625 1140.660156 C 2720.140625 1154.339844 2697.878906 1165.441406 2670.410156 1165.441406 C 2642.949219 1165.441406 2620.699219 1154.339844 2620.699219 1140.660156 C 2620.699219 1126.96875 2642.949219 1115.878906 2670.410156 1115.878906 C 2697.878906 1115.878906 2720.140625 1126.96875 2720.140625 1140.660156 "/>
<path fill-rule="nonzero" fill="rgb(19.604492%, 14.501953%, 7.054138%)" fill-opacity="1" d="M 3295.738281 1162.25 C 3295.738281 1171.949219 3277.160156 1179.820312 3254.230469 1179.820312 C 3231.300781 1179.820312 3212.71875 1171.949219 3212.71875 1162.25 C 3212.71875 1152.539062 3231.300781 1144.679688 3254.230469 1144.679688 C 3277.160156 1144.679688 3295.738281 1152.539062 3295.738281 1162.25 "/>
</svg>
